<svg width="94" height="93" viewBox="0 0 94 93" fill="none" xmlns="http://www.w3.org/2000/svg">
<g id="lightbulb-05">
<path id="Icon" d="M47 7.75V11.625M12.125 46.5H8.25M21.8125 21.3125L19.4871 18.9871M72.1875 21.3125L74.5135 18.9871M85.75 46.5H81.875M39.25 52.3125H54.75M47 52.3125V71.6875M60.5625 65.3866C66.4295 61.166 70.25 54.2792 70.25 46.5C70.25 33.6594 59.8406 23.25 47 23.25C34.1594 23.25 23.75 33.6594 23.75 46.5C23.75 54.2792 27.5705 61.166 33.4375 65.3866V72.85C33.4375 77.1904 33.4375 79.3606 34.2822 81.0184C35.0252 82.4767 36.2108 83.6623 37.6691 84.4053C39.3269 85.25 41.4971 85.25 45.8375 85.25H48.1625C52.5029 85.25 54.6731 85.25 56.3309 84.4053C57.7892 83.6623 58.9748 82.4767 59.7178 81.0184C60.5625 79.3606 60.5625 77.1904 60.5625 72.85V65.3866Z" stroke="white" stroke-width="6.01034" stroke-linecap="round" stroke-linejoin="round"/>
</g>
</svg>
