<?xml version="1.0" encoding="utf-8"?>
<svg viewBox="40.829 13.898 32.28 32.132" width="32.28" height="32.132" xmlns="http://www.w3.org/2000/svg">
  <g id="Group">
    <path id="Vector_13" d="M 44.835 30.801 L 47.044 30.801 C 48.741 30.801 50.114 29.426 50.114 27.732 L 50.114 25.522 C 50.114 23.826 48.739 22.453 47.044 22.453 L 44.835 22.453 C 43.139 22.453 41.766 23.828 41.766 25.522 L 41.766 27.732 C 41.766 29.426 43.141 30.801 44.835 30.801 Z" fill="#1D1D1B"/>
    <path id="Vector_14" d="M 57.112 35.729 C 58.718 35.729 60.019 34.427 60.019 32.822 L 60.019 30.247 C 60.019 28.641 58.718 27.339 57.112 27.339 L 54.537 27.339 C 52.931 27.339 51.629 28.641 51.629 30.247 L 51.629 32.822 C 51.629 32.951 51.642 33.079 51.656 33.204 C 51.367 33.113 51.058 33.062 50.737 33.062 L 43.884 33.062 C 42.197 33.062 40.829 34.43 40.829 36.117 L 40.829 42.97 C 40.829 44.657 42.197 46.025 43.884 46.025 L 50.737 46.025 C 52.424 46.025 53.792 44.657 53.792 42.97 L 53.792 36.119 C 53.792 35.948 53.775 35.781 53.748 35.619 C 53.998 35.69 54.263 35.729 54.535 35.729 L 57.112 35.729 Z" fill="#1D1D1B"/>
    <path id="Vector_15" d="M 61.735 37.863 L 59.635 37.863 C 57.96 37.863 56.602 39.221 56.602 40.896 L 56.602 42.997 C 56.602 44.671 57.96 46.03 59.635 46.03 L 61.735 46.03 C 63.41 46.03 64.768 44.671 64.768 42.997 L 64.768 40.896 C 64.768 39.221 63.41 37.863 61.735 37.863 Z" fill="#1D1D1B"/>
    <path id="Vector_16" d="M 51.803 20.67 L 53.078 20.67 C 54.596 20.67 55.827 19.439 55.827 17.922 L 55.827 16.647 C 55.827 15.129 54.596 13.898 53.078 13.898 L 51.803 13.898 C 50.286 13.898 49.055 15.129 49.055 16.647 L 49.055 17.922 C 49.055 19.439 50.286 20.67 51.803 20.67 Z" fill="#1D1D1B"/>
    <path id="Vector_17" d="M 61.5 26.204 L 62.537 26.204 C 64.008 26.204 65.202 25.01 65.202 23.539 L 65.202 22.502 C 65.202 21.031 64.008 19.836 62.537 19.836 L 61.5 19.836 C 60.029 19.836 58.835 21.031 58.835 22.502 L 58.835 23.539 C 58.835 25.01 60.029 26.204 61.5 26.204 Z" fill="#1D1D1B"/>
    <path id="Vector_18" d="M 70.67 16.348 L 70.285 16.348 C 68.936 16.348 67.845 17.441 67.845 18.787 L 67.845 19.172 C 67.845 20.521 68.939 21.612 70.285 21.612 L 70.67 21.612 C 72.018 21.612 73.109 20.518 73.109 19.172 L 73.109 18.787 C 73.109 17.441 72.018 16.348 70.67 16.348 Z" fill="#1D1D1B"/>
    <path id="Vector_19" d="M 67.044 28.168 L 66.659 28.168 C 65.31 28.168 64.219 29.262 64.219 30.608 L 64.219 30.993 C 64.219 32.341 65.313 33.432 66.659 33.432 L 67.044 33.432 C 68.392 33.432 69.483 32.339 69.483 30.993 L 69.483 30.608 C 69.483 29.262 68.39 28.168 67.044 28.168 Z" fill="#1D1D1B"/>
  </g>
</svg>