<svg width="113" height="56" viewBox="0 0 113 56" fill="none" xmlns="http://www.w3.org/2000/svg">
    <g id="Group">
        <path id="Vector" d="M11.6831 17.8225C10.565 17.2096 9.27291 16.9031 7.80917 16.9031C6.34542 16.9031 5.0533 17.2096 3.93526 17.8225C2.81722 18.4355 1.94682 19.3083 1.3216 20.4362C0.698835 21.564 0.387451 22.8807 0.387451 24.3836V24.771C0.387451 26.2961 0.698835 27.6176 1.3216 28.7332C1.94437 29.8512 2.81477 30.7167 3.93526 31.3321C5.0533 31.9451 6.34542 32.2516 7.80917 32.2516C9.27291 32.2516 10.565 31.9451 11.6831 31.3321C12.8011 30.7192 13.6715 29.8537 14.2967 28.7332C14.9195 27.6152 15.2309 26.2936 15.2309 24.771V24.3836C15.2309 22.8807 14.9195 21.564 14.2967 20.4362C13.6715 19.3059 12.8011 18.4355 11.6831 17.8225ZM12.8845 24.7097C12.8845 26.3721 12.4235 27.6936 11.5041 28.6719C10.5846 29.6526 9.35137 30.1406 7.80672 30.1406C6.28167 30.1406 5.05575 29.6502 4.12405 28.6719C3.19481 27.6912 2.72896 26.3721 2.72896 24.7097V24.4425C2.72896 22.7801 3.19481 21.4586 4.12405 20.4803C5.0533 19.4996 6.28167 19.0117 7.80672 19.0117C9.35137 19.0117 10.5822 19.502 11.5041 20.4803C12.4235 21.461 12.8845 22.7801 12.8845 24.4425V24.7097Z" fill="#1D1D1B"/>
        <path id="Vector_2" d="M20.3673 31.3591C21.4167 31.9525 22.5641 32.2491 23.8121 32.2491C25.3151 32.2491 26.4846 31.9623 27.3158 31.3885C28.147 30.8148 28.7599 30.1626 29.1571 29.4295H29.5739V31.8348H31.8591V11.053H29.5151V19.6025H29.0983C28.8605 19.1465 28.5246 18.7174 28.0881 18.3104C27.6517 17.9059 27.0829 17.5675 26.3817 17.3003C25.678 17.033 24.8223 16.8982 23.8146 16.8982C22.547 16.8982 21.3946 17.1997 20.355 17.8029C19.3155 18.406 18.4892 19.2666 17.8762 20.3847C17.2633 21.5027 16.9568 22.8341 16.9568 24.3787V24.7661C16.9568 26.3108 17.2633 27.6446 17.8762 28.7749C18.4867 29.9052 19.3179 30.7658 20.3673 31.3591ZM19.3277 24.4425C19.3277 22.7213 19.8083 21.3801 20.7669 20.419C21.7256 19.4603 22.9491 18.9798 24.4324 18.9798C25.9354 18.9798 27.1589 19.4603 28.0979 20.419C29.037 21.3801 29.5077 22.7188 29.5077 24.4425V24.7097C29.5077 26.4309 29.037 27.7721 28.0979 28.7332C27.1564 29.6943 25.9354 30.1724 24.4324 30.1724C22.9491 30.1724 21.7256 29.6919 20.7669 28.7332C19.8058 27.7745 19.3277 26.4334 19.3277 24.7097V24.4425Z" fill="#1D1D1B"/>
        <path id="Vector_3" d="M49.1349 24.3836C49.1349 22.8807 48.8236 21.564 48.2008 20.4362C47.578 19.3083 46.7052 18.4379 45.5871 17.8225C44.4691 17.2096 43.177 16.9031 41.7132 16.9031C40.2495 16.9031 38.9574 17.2096 37.8393 17.8225C36.7213 18.4355 35.8509 19.3083 35.2257 20.4362C34.6029 21.564 34.2915 22.8807 34.2915 24.3836V24.771C34.2915 26.2961 34.6029 27.6176 35.2257 28.7332C35.8484 29.8512 36.7188 30.7167 37.8393 31.3321C38.9574 31.9451 40.2495 32.2516 41.7132 32.2516C43.177 32.2516 44.4691 31.9451 45.5871 31.3321C46.7052 30.7192 47.5756 29.8537 48.2008 28.7332C48.8236 27.6152 49.1349 26.2936 49.1349 24.771V24.3836ZM46.7885 24.7097C46.7885 26.3721 46.3276 27.6936 45.4081 28.6719C44.4887 29.6526 43.2554 30.1406 41.7108 30.1406C40.1857 30.1406 38.9598 29.6502 38.0281 28.6719C37.0989 27.6912 36.633 26.3721 36.633 24.7097V24.4425C36.633 22.7801 37.0989 21.4586 38.0281 20.4803C38.9574 19.4996 40.1857 19.0117 41.7108 19.0117C43.2554 19.0117 44.4862 19.502 45.4081 20.4803C46.3276 21.461 46.7885 22.7801 46.7885 24.4425V24.7097Z" fill="#1D1D1B"/>
        <path id="Vector_4" d="M62.495 24.6214C62.495 26.4235 62.0488 27.7794 61.1588 28.689C60.2687 29.5986 59.1286 30.0547 57.7433 30.0547C56.515 30.0547 55.5416 29.7286 54.8183 29.074C54.095 28.4218 53.7346 27.3724 53.7346 25.9258V17.3174H51.3906V26.1048C51.3906 27.392 51.6432 28.4855 52.1482 29.3853C52.6533 30.2852 53.3447 30.9643 54.2274 31.4179C55.1076 31.874 56.0736 32.0995 57.123 32.0995C58.6088 32.0995 59.7367 31.8176 60.5066 31.2536C61.2789 30.6897 61.8232 30.062 62.1395 29.3682H62.5563V31.8323H64.8414V17.3174H62.4975V24.6214H62.495Z" fill="#1D1D1B"/>
        <path id="Vector_5" d="M70.3015 22.9885C70.3015 21.7626 70.6227 20.8554 71.2675 20.2719C71.9099 19.6883 72.7558 19.3965 73.8051 19.3965H75.6759V17.2585H73.9547C73.0843 17.2585 72.3806 17.4057 71.8461 17.7048C71.3116 18.0015 70.9144 18.4673 70.6594 19.0999H70.2426V17.3198H67.9575V31.8372H70.3015V22.9885Z" fill="#1D1D1B"/>
        <path id="Vector_6" d="M10.2879 51.8C9.70438 52.3836 8.84869 52.6753 7.72084 52.6753C6.96813 52.6753 6.29142 52.5111 5.68581 52.185C5.08266 51.8589 4.60701 51.3734 4.2613 50.731C3.91559 50.0887 3.74151 49.3016 3.74151 48.3699V48.0732C3.74151 47.144 3.91559 46.357 4.2613 45.7121C4.60701 45.0697 5.08266 44.5843 5.68581 44.2582C6.28897 43.9321 6.96813 43.7678 7.72084 43.7678C8.47355 43.7678 9.10123 43.9076 9.60631 44.1846C10.1114 44.4617 10.5012 44.8368 10.7783 45.3125C11.0553 45.7881 11.2343 46.3226 11.3128 46.916L14.9342 46.1436C14.7356 45.055 14.3261 44.0792 13.7009 43.2186C13.0781 42.358 12.2616 41.6788 11.2515 41.186C10.2413 40.6908 9.03503 40.4431 7.63012 40.4431C6.2056 40.4431 4.91349 40.7398 3.75622 41.3331C2.59895 41.9265 1.68196 42.7871 1.01016 43.9174C0.335902 45.0452 0 46.4109 0 48.0144V48.4312C0 50.0347 0.335902 51.4004 1.01016 52.5282C1.68196 53.6561 2.59895 54.5167 3.75622 55.11C4.91349 55.7034 6.2056 56 7.63012 56C9.03503 56 10.2438 55.7524 11.2515 55.2571C12.2592 54.7619 13.0781 54.0851 13.7009 53.2221C14.3236 52.3615 14.765 51.4053 15.0224 50.3584L11.4011 49.4978C11.2417 50.4491 10.8715 51.2165 10.2879 51.8Z" fill="#1D1D1B"/>
        <path id="Vector_7" d="M28.4708 41.3356C27.3037 40.7422 25.9871 40.4456 24.5233 40.4456C23.0571 40.4456 21.7429 40.7422 20.5759 41.3356C19.4088 41.9289 18.4869 42.7895 17.8151 43.9198C17.1408 45.0477 16.8049 46.4035 16.8049 47.9874V48.4631C16.8049 50.047 17.1408 51.4028 17.8151 52.5307C18.4869 53.6585 19.4088 54.5191 20.5759 55.1125C21.7429 55.7058 23.0596 56.0025 24.5233 56.0025C25.9871 56.0025 27.3037 55.7058 28.4708 55.1125C29.6379 54.5191 30.5597 53.6585 31.2316 52.5307C31.9034 51.4028 32.2417 50.047 32.2417 48.4631V47.9874C32.2417 46.4035 31.9058 45.0477 31.2316 43.9198C30.5597 42.7895 29.6403 41.9289 28.4708 41.3356ZM28.5002 48.3699C28.5002 49.7552 28.1251 50.8193 27.3724 51.5622C26.6196 52.3051 25.6708 52.6753 24.5233 52.6753C23.3759 52.6753 22.4245 52.3051 21.6743 51.5622C20.9216 50.8193 20.5464 49.7552 20.5464 48.3699V48.0732C20.5464 46.6879 20.9216 45.6238 21.6743 44.8809C22.427 44.138 23.3759 43.7678 24.5233 43.7678C25.6904 43.7678 26.6466 44.138 27.3871 44.8809C28.13 45.6238 28.5002 46.6879 28.5002 48.0732V48.3699Z" fill="#1D1D1B"/>
        <path id="Vector_8" d="M38.8323 34.804H35.0908V55.5857H38.8323V34.804Z" fill="#1D1D1B"/>
        <path id="Vector_9" d="M46.1363 34.804H42.3948V55.5857H46.1363V34.804Z" fill="#1D1D1B"/>
        <path id="Vector_10" d="M60.1191 41.4091C59.0501 40.7667 57.7923 40.4456 56.3482 40.4456C54.882 40.4456 53.5972 40.7569 52.489 41.3797C51.3808 42.0025 50.5202 42.8851 49.9072 44.0228C49.2943 45.1604 48.9878 46.5016 48.9878 48.0463V48.4018C48.9878 49.9464 49.2992 51.2876 49.9244 52.4252C50.5472 53.5629 51.4176 54.4431 52.5381 55.0683C53.6561 55.6911 54.9482 56.0049 56.412 56.0049C57.758 56.0049 58.8663 55.7916 59.7367 55.3674C60.6071 54.9408 61.3058 54.4284 61.8305 53.8228C62.3552 53.2196 62.7549 52.6606 63.0319 52.1457L59.9745 50.5422C59.717 51.0963 59.3419 51.6014 58.8466 52.0575C58.3514 52.5135 57.579 52.7391 56.5321 52.7391C55.5023 52.7391 54.6319 52.4228 53.9184 51.7878C53.205 51.1552 52.8298 50.3338 52.7906 49.3237H63.5027V48.0463C63.5027 46.5433 63.206 45.2217 62.6127 44.0816C62.0193 42.944 61.1881 42.0515 60.1191 41.4091ZM52.8151 46.531C52.9524 45.6802 53.3202 44.9986 53.9135 44.4813C54.5069 43.9664 55.3086 43.709 56.3188 43.709C57.2873 43.709 58.0743 43.9664 58.6799 44.4813C59.2831 44.9962 59.6239 45.6802 59.7048 46.531H52.8151Z" fill="#1D1D1B"/>
        <path id="Vector_11" d="M75.8084 51.8C75.2249 52.3836 74.3692 52.6753 73.2413 52.6753C72.4886 52.6753 71.8119 52.5111 71.2063 52.185C70.6032 51.8589 70.1275 51.3734 69.7818 50.731C69.4361 50.0887 69.262 49.3016 69.262 48.3699V48.0732C69.262 47.144 69.4361 46.357 69.7818 45.7121C70.1275 45.0697 70.6032 44.5843 71.2063 44.2582C71.8095 43.9321 72.4886 43.7678 73.2413 43.7678C73.9941 43.7678 74.6217 43.9076 75.1268 44.1846C75.6319 44.4617 76.0217 44.8368 76.2988 45.3125C76.5758 45.7881 76.7548 46.3226 76.8333 46.916L80.4547 46.1436C80.2561 45.055 79.8466 44.0792 79.2214 43.2186C78.5986 42.358 77.7822 41.6788 76.772 41.186C75.7618 40.6908 74.5555 40.4431 73.1506 40.4431C71.7261 40.4431 70.434 40.7398 69.2767 41.3331C68.1195 41.9265 67.2025 42.7871 66.5307 43.9174C65.8564 45.0452 65.5205 46.4109 65.5205 48.0144V48.4312C65.5205 50.0347 65.8564 51.4004 66.5307 52.5282C67.2025 53.6561 68.1195 54.5167 69.2767 55.11C70.434 55.7034 71.7261 56 73.1506 56C74.5555 56 75.7643 55.7524 76.772 55.2571C77.7797 54.7619 78.5986 54.0851 79.2214 53.2221C79.8441 52.3615 80.2855 51.4053 80.5429 50.3584L76.9216 49.4978C76.7646 50.4491 76.392 51.2165 75.8084 51.8Z" fill="#1D1D1B"/>
        <path id="Vector_12" d="M88.6781 36.2871H84.9366V40.8598H81.2563V43.9467H84.9366V52.2584C84.9366 53.2685 85.2381 54.0752 85.8413 54.6784C86.4444 55.2815 87.2315 55.5831 88.2024 55.5831H92.3583V52.4962H89.5092C88.9551 52.4962 88.6781 52.1995 88.6781 51.6062V43.9467H92.7162V40.8598H88.6781V36.2871Z" fill="#1D1D1B"/>
        <path id="Vector_13" d="M83.9559 16.9005H86.165C87.8617 16.9005 89.2347 15.525 89.2347 13.8308V11.6217C89.2347 9.92503 87.8593 8.552 86.165 8.552H83.9559C82.2593 8.552 80.8862 9.92748 80.8862 11.6217V13.8308C80.8862 15.525 82.2617 16.9005 83.9559 16.9005Z" fill="#1D1D1B"/>
        <path id="Vector_14" d="M96.2321 21.8287C97.8381 21.8287 99.14 20.5267 99.14 18.9208V16.3464C99.14 14.7404 97.8381 13.4385 96.2321 13.4385H93.6577C92.0517 13.4385 90.7498 14.7404 90.7498 16.3464V18.9208C90.7498 19.0507 90.7621 19.1782 90.7768 19.3033C90.4875 19.2126 90.1785 19.1611 89.8573 19.1611H83.0045C81.3176 19.1611 79.9495 20.5292 79.9495 22.2161V29.0689C79.9495 30.7558 81.3176 32.1239 83.0045 32.1239H89.8573C91.5442 32.1239 92.9123 30.7558 92.9123 29.0689V22.2185C92.9123 22.0469 92.8952 21.8802 92.8682 21.7183C93.1183 21.7894 93.3831 21.8287 93.6552 21.8287H96.2321Z" fill="#1D1D1B"/>
        <path id="Vector_15" d="M100.856 23.9619H98.7551C97.0805 23.9619 95.7222 25.3202 95.7222 26.9948V29.0961C95.7222 30.7707 97.0805 32.129 98.7551 32.129H100.856C102.531 32.129 103.889 30.7707 103.889 29.0961V26.9948C103.889 25.3202 102.531 23.9619 100.856 23.9619Z" fill="#1D1D1B"/>
        <path id="Vector_16" d="M90.924 6.76954H92.199C93.7167 6.76954 94.9475 5.53871 94.9475 4.02103V2.74607C94.9475 1.22838 93.7167 -0.00244141 92.199 -0.00244141H90.924C89.4064 -0.00244141 88.1755 1.22838 88.1755 2.74607V4.02103C88.1755 5.53871 89.4064 6.76954 90.924 6.76954Z" fill="#1D1D1B"/>
        <path id="Vector_17" d="M100.621 12.3032H101.658C103.129 12.3032 104.323 11.1092 104.323 9.63807V8.60094C104.323 7.12984 103.129 5.93579 101.658 5.93579H100.621C99.1499 5.93579 97.9558 7.12984 97.9558 8.60094V9.63807C97.9558 11.1092 99.1499 12.3032 100.621 12.3032Z" fill="#1D1D1B"/>
        <path id="Vector_18" d="M109.791 2.44702H109.406C108.057 2.44702 106.966 3.54054 106.966 4.8866V5.27154C106.966 6.62005 108.06 7.71112 109.406 7.71112H109.791C111.139 7.71112 112.23 6.6176 112.23 5.27154V4.8866C112.23 3.54054 111.139 2.44702 109.791 2.44702Z" fill="#1D1D1B"/>
        <path id="Vector_19" d="M106.165 14.2673H105.78C104.431 14.2673 103.34 15.3609 103.34 16.7069V17.0919C103.34 18.4404 104.434 19.5314 105.78 19.5314H106.165C107.513 19.5314 108.604 18.4379 108.604 17.0919V16.7069C108.604 15.3609 107.511 14.2673 106.165 14.2673Z" fill="#1D1D1B"/>
    </g>
</svg>
