<svg width="67" height="67" viewBox="0 0 67 67" fill="none" xmlns="http://www.w3.org/2000/svg">
<g id="Chat">
<g id="Group 3">
<mask id="mask0_4_400" style="mask-type:luminance" maskUnits="userSpaceOnUse" x="0" y="0" width="67" height="67">
<path id="Clip 2" fill-rule="evenodd" clip-rule="evenodd" d="M0.0834961 0.0842285H66.3536V66.3568H0.0834961V0.0842285Z" fill="white"/>
</mask>
<g mask="url(#mask0_4_400)">
<path id="Fill 1" fill-rule="evenodd" clip-rule="evenodd" d="M15.8345 57.6655C17.6228 57.6655 19.3094 58.3438 21.0947 59.0622C32.0313 64.1189 44.9658 61.8187 53.3926 53.3951C64.5111 42.2704 64.5111 24.1743 53.3926 13.0558C48.0091 7.67231 40.8496 4.70923 33.2276 4.70923C25.6025 4.70923 18.4399 7.6754 13.0595 13.0589C4.62968 21.4826 2.33568 34.4171 7.34609 45.2489C8.06759 47.0341 8.76443 48.7731 8.76443 50.58C8.76443 52.3837 8.14468 54.1998 7.59893 55.8031C7.14876 57.1228 6.46734 59.1146 6.90518 59.5525C7.33376 59.9965 9.33793 59.2966 10.6607 58.8433C12.2486 58.3006 14.0493 57.6778 15.8345 57.6655ZM33.1505 66.3574C28.4392 66.3574 23.697 65.3615 19.2601 63.308C17.9528 62.7838 16.7287 62.2905 15.8499 62.2905C14.8386 62.2966 13.4788 62.7653 12.1653 63.2186C9.47051 64.1436 6.11584 65.2967 3.63376 62.8239C1.16093 60.348 2.30176 57.0026 3.22059 54.3108C3.67384 52.985 4.13943 51.616 4.13943 50.58C4.13943 49.729 3.72934 48.6436 3.10034 47.0804C-2.67474 34.6083 -0.00457254 19.5771 9.79118 9.78748C16.0442 3.5314 24.3661 0.0842285 33.2245 0.0842285C42.0829 0.0842285 50.4079 3.52831 56.6609 9.78439C69.5863 22.7097 69.5863 43.7381 56.6609 56.6634C50.3247 63.0027 41.7931 66.3574 33.1505 66.3574Z" fill="black"/>
</g>
</g>
<path id="Fill 4" fill-rule="evenodd" clip-rule="evenodd" d="M45.3969 37.5859C43.6949 37.5859 42.3013 36.2076 42.3013 34.5025C42.3013 32.7974 43.6672 31.4192 45.3692 31.4192H45.3969C47.0989 31.4192 48.4803 32.7974 48.4803 34.5025C48.4803 36.2076 47.0989 37.5859 45.3969 37.5859Z" fill="black"/>
<path id="Fill 6" fill-rule="evenodd" clip-rule="evenodd" d="M33.0366 37.5859C31.3346 37.5859 29.9409 36.2076 29.9409 34.5025C29.9409 32.7974 31.3038 31.4192 33.0088 31.4192H33.0366C34.7386 31.4192 36.1199 32.7974 36.1199 34.5025C36.1199 36.2076 34.7386 37.5859 33.0366 37.5859Z" fill="black"/>
<path id="Fill 8" fill-rule="evenodd" clip-rule="evenodd" d="M20.6748 37.5859C18.9728 37.5859 17.5791 36.2076 17.5791 34.5025C17.5791 32.7974 18.945 31.4192 20.647 31.4192H20.6748C22.3768 31.4192 23.7581 32.7974 23.7581 34.5025C23.7581 36.2076 22.3768 37.5859 20.6748 37.5859Z" fill="black"/>
</g>
</svg>
