<svg width="50" height="55" viewBox="0 0 50 55" fill="none" xmlns="http://www.w3.org/2000/svg">
<g id="Location_Tracking">
<g id="Group">
<g id="Group_2">
<path id="Vector" d="M49.2794 51.6894C48.9107 52.8334 47.8895 53.6749 46.9724 53.2211C41.8288 50.62 37.1086 49.0843 36.6101 49.0988C36.3356 49.1064 36.5693 49.0178 32.5635 50.6872C23.5192 54.4117 24.4303 54.2673 23.4397 53.7978C23.4136 53.7837 13.8388 48.8271 13.2098 48.5126C12.2984 48.0423 12.0936 48.3066 11.4512 48.6544C6.18624 51.3883 5.01732 53.6742 3.08387 53.864C2.02497 53.9774 0.55947 53.325 0.71079 52.0108C3.40832 29.4577 3.08168 31.0509 3.39587 30.511C3.58496 30.199 4.01986 30.0287 4.32239 29.8586C6.38752 28.6714 9.49454 27.4931 12.8695 26.9087C14.6275 26.5931 12.9057 26.4514 25.1038 30.0666C25.1322 30.076 25.2456 30.0004 25.2739 29.9909C25.425 29.8903 28.0359 28.7167 31.1358 27.7408C32.1475 27.4193 33.1781 27.1168 34.2087 26.8331C36.314 26.3071 35.472 26.3254 36.9789 26.8048C37.0569 26.8332 42.3148 28.696 44.8262 29.6127C45.904 30.0099 47.2371 30.1895 47.4074 31.5793C47.8422 35.2761 48.2867 38.9634 48.7215 42.6508C49.5211 49.2199 49.724 50.2983 49.2794 51.6894Z" fill="#E2D2F6"/>
</g>
<g id="Group_3">
<path id="Vector_2" d="M24.3787 52.2103C24.2252 52.2103 24.1001 52.0851 24.1001 51.9306C24.1132 48.0361 24.1872 44.0991 24.3199 40.2312C24.3326 39.8745 24.8903 39.8758 24.877 40.2508C24.7443 44.1132 24.6703 48.0437 24.6572 51.9328C24.6572 52.0862 24.5321 52.2103 24.3787 52.2103Z" fill="black"/>
</g>
<g id="Group_4">
<path id="Vector_3" d="M36.1438 46.6193C35.9979 46.6193 35.875 46.5061 35.8663 46.3592C35.4865 40.4945 35.4582 34.5439 35.7803 28.6727C35.8017 28.2952 36.3555 28.3405 36.3374 28.7032C36.0154 34.5526 36.0436 40.4804 36.4212 46.3222C36.4321 46.4767 36.3157 46.6084 36.1623 46.6182C36.1557 46.6193 36.1492 46.6193 36.1438 46.6193Z" fill="black"/>
</g>
<g id="Group_5">
<path id="Vector_4" d="M12.9726 20.4992C12.2682 17.1653 12.9283 13.6486 14.8863 10.8413C20.2078 3.21125 30.6779 3.66857 35.2462 13.3722C40.3695 24.2565 30.4974 29.7845 26.1413 36.6574C25.5694 37.5596 25.0316 39.5047 23.9176 38.1926C21.8057 35.7053 20.1203 32.7474 18.2653 30.0528C16.308 27.21 13.6944 23.9158 12.9726 20.4992Z" fill="#F2A571"/>
</g>
<g id="Group_6">
<path id="Vector_5" d="M23.4928 38.5531C22.0281 36.8284 20.7604 34.8724 19.534 32.9807C16.1014 27.6846 13.2577 24.5428 12.4272 20.6142C11.6829 17.0908 12.4131 13.4122 14.4294 10.5221C14.6068 10.2685 14.955 10.2092 15.2053 10.3839C15.4578 10.5602 15.5198 10.9073 15.3435 11.1597C13.5023 13.7985 12.8364 17.1604 13.5176 20.3836C14.2933 24.0513 17.0374 27.0786 20.4687 32.3746C21.6766 34.237 22.9247 36.1625 24.3415 37.8317C24.5407 38.0662 24.5124 38.4182 24.2773 38.6173C24.0438 38.8156 23.6923 38.7882 23.4928 38.5531Z" fill="black"/>
</g>
<g id="Group_7">
<path id="Vector_6" d="M16.2686 17.9747C16.0945 23.7006 21.3574 27.9789 26.7147 26.6358C29.7621 25.8718 32.239 23.1949 32.7644 20.0975C33.2899 17.0001 31.8344 13.656 29.2095 11.9298C26.7352 10.3025 23.3903 10.3523 20.6375 11.2391C17.9862 12.0933 16.3481 15.3623 16.2686 17.9747Z" fill="white"/>
</g>
<g id="Group_8">
<path id="Vector_7" d="M25.7236 34.1168C27.4157 31.5629 29.3134 29.1151 31.3635 26.8425C31.6123 26.5672 32.0226 26.9442 31.777 27.2157C29.7454 29.4682 27.8651 31.8932 26.1871 34.4248C25.9848 34.7325 25.5186 34.4231 25.7236 34.1168Z" fill="black"/>
</g>
<g id="Group_9">
<path id="Vector_8" d="M31.306 17.8569C31.1537 17.8569 31.0296 17.7345 31.0274 17.5816C31.0068 15.9015 30.0622 14.2584 28.6204 13.3955C28.3032 13.207 28.5902 12.7252 28.9055 12.9178C30.5106 13.877 31.5617 15.7051 31.5846 17.5751C31.5867 17.7285 31.4638 17.8548 31.3093 17.8569C31.3082 17.8569 31.3071 17.8569 31.306 17.8569Z" fill="black"/>
</g>
<g id="Group_10">
<path id="Vector_9" d="M16.8499 50.394C16.6896 50.2976 14.2558 49.0355 13.2098 48.5125C12.2984 48.0422 12.0936 48.3065 11.4512 48.6543C6.18624 51.3882 5.01732 53.6741 3.08387 53.8639C2.02497 53.9773 0.55947 53.3249 0.71079 52.0108C0.775176 51.4724 1.78959 42.8774 2.10999 40.2113C2.96096 40.06 3.8592 40.287 4.57767 41.0623C4.89755 41.4067 5.51761 42.4477 6.31739 42.159C7.87349 41.5841 5.8095 37.7044 7.87738 36.4011C9.41322 35.451 11.9367 37.286 12.3305 39.0578C12.529 39.9939 12.2455 40.9488 12.0847 41.8849C11.3933 45.9122 14.7305 45.0284 16.3014 45.8841C17.6944 46.6451 18.255 48.7834 16.8499 50.394Z" fill="#D1E789"/>
</g>
<g id="Group_11">
<path id="Vector_10" d="M48.7215 42.6507C48.6837 42.6885 48.6459 42.7169 48.5986 42.7452C47.8329 43.2558 46.6604 43.2558 46.1026 42.5183C45.6866 41.9699 45.7244 41.1946 45.9702 40.5517C46.2067 39.9088 46.6321 39.3604 46.9629 38.7553C47.294 38.1597 47.5397 37.46 47.379 36.7982C47.2278 36.1269 46.547 35.5502 45.8851 35.7203C45.0342 35.9473 44.8546 37.0441 44.4387 37.8193C43.4994 39.5954 40.9477 39.753 39.7964 38.0368C39.4654 37.5451 39.3142 36.9023 39.5127 36.3443C39.8058 35.5029 40.7323 35.1153 41.5077 34.6992C42.2923 34.2833 43.1054 33.5269 42.8975 32.6665C42.7273 31.9763 41.9898 31.6265 41.4415 31.1726C40.5244 30.4163 40.0706 29.1399 40.2407 27.9675C40.7755 28.1459 44.7147 29.572 44.8262 29.6126C45.904 30.0098 47.2372 30.1894 47.4074 31.5792C47.8422 35.276 48.2867 38.9633 48.7215 42.6507Z" fill="#D1E789"/>
</g>
<g id="Group_12">
<path id="Vector_11" d="M12.9433 46.2068C12.7964 46.2068 12.6723 46.0914 12.6647 45.9423C12.3524 39.9629 12.4732 33.9116 13.0227 27.9572C13.0567 27.5884 13.6115 27.642 13.5777 28.0083C13.0303 33.9361 12.9106 39.9602 13.2219 45.914C13.2295 46.0675 13.1119 46.1981 12.9574 46.2068C12.9531 46.2068 12.9476 46.2068 12.9433 46.2068Z" fill="black"/>
</g>
<g id="Group_13">
<path id="Vector_12" d="M30.593 42.4556C30.7251 42.7897 30.9459 43.107 31.2707 43.2606C31.6588 43.444 32.1409 43.3556 32.4866 43.1012C33.3218 42.4866 33.2478 40.5978 32.2188 40.1534C30.8424 39.5589 30.2065 41.4772 30.593 42.4556Z" fill="#D1E789"/>
</g>
<g id="Group_14">
<path id="Vector_13" d="M45.1878 50.1471C45.0126 50.0535 44.8385 49.9589 44.6546 49.886C44.3157 49.7489 44.5137 49.2376 44.8613 49.368C45.5363 49.6387 46.3297 50.299 46.9495 49.9404C47.9945 49.3371 46.8258 46.7118 47.6078 46.7118H47.6165C47.7711 46.7172 47.8918 46.8456 47.8864 46.9991C47.85 48.0692 48.3459 49.7777 47.2281 50.4235C47.0289 50.5378 45.8351 50.4946 45.1878 50.1471Z" fill="black"/>
</g>
<g id="Group_15">
<path id="Vector_14" d="M37.9341 11.6887C37.8503 10.6375 37.2562 9.61789 36.3813 9.0281C36.1267 8.85563 36.0592 8.5096 36.2322 8.25442C36.4053 7.99925 36.7524 7.9345 37.0059 8.10425C38.1713 8.89154 38.9341 10.199 39.044 11.6005C39.0691 11.9074 38.8395 12.1756 38.5326 12.2001C38.222 12.224 37.9579 11.9917 37.9341 11.6887Z" fill="black"/>
</g>
<g id="Group_16">
<path id="Vector_15" d="M41.8642 12.0479C41.6423 9.26598 40.0688 6.56734 37.7553 5.00528C37.5007 4.83281 37.4332 4.48623 37.6063 4.2316C37.7793 3.97643 38.1264 3.91222 38.3799 4.08143C41.0057 5.85568 42.7228 8.80079 42.9742 11.9597C42.9992 12.2666 42.7696 12.5348 42.4638 12.5593C42.1431 12.5822 41.8875 12.3442 41.8642 12.0479Z" fill="black"/>
</g>
<g id="Group_17">
<path id="Vector_16" d="M45.834 12.2241C45.4814 7.79635 42.9765 3.50137 39.2942 1.01492C39.0395 0.842447 38.9721 0.496412 39.1451 0.241238C39.3192 -0.0139362 39.6641 -0.078682 39.9188 0.0910714C43.9341 2.80332 46.5609 7.30613 46.9439 12.1359C46.969 12.4428 46.7394 12.711 46.4336 12.7355C46.1129 12.7584 45.8572 12.5204 45.834 12.2241Z" fill="black"/>
</g>
</g>
</g>
</svg>
