<svg width="43" height="43" viewBox="0 0 43 43" fill="none" xmlns="http://www.w3.org/2000/svg">
<g id="ph:arrow-down-right-bold" clip-path="url(#clip0_1_1762)">
<path id="Vector" d="M24.085 12.4468L32.8007 20.9657C33.0674 21.2264 33.2197 21.5824 33.2239 21.9553C33.2282 22.3282 33.0841 22.6876 32.8234 22.9543L24.3045 31.67C24.0439 31.9367 23.6879 32.089 23.3149 32.0932C22.942 32.0975 22.5827 31.9534 22.3159 31.6927C22.0492 31.432 21.897 31.0761 21.8927 30.7031C21.8885 30.3302 22.0325 29.9708 22.2932 29.7041L28.4367 23.4187L10.6212 23.6197C10.4362 23.6218 10.2526 23.5875 10.0809 23.5187C9.9092 23.4498 9.75274 23.3478 9.62044 23.2185C9.35326 22.9574 9.20076 22.6008 9.1965 22.2272C9.19223 21.8536 9.33654 21.4937 9.59769 21.2265C9.85884 20.9593 10.2154 20.8068 10.589 20.8025L28.4045 20.6016L22.1191 14.4581C21.8524 14.1974 21.7002 13.8415 21.6959 13.4685C21.6916 13.0956 21.8357 12.7362 22.0964 12.4695C22.3571 12.2028 22.7131 12.0506 23.086 12.0463C23.4589 12.0421 23.8183 12.1861 24.085 12.4468Z" fill="#D7B1F2"/>
</g>
<defs>
<clipPath id="clip0_1_1762">
<rect width="30" height="30" fill="white" transform="translate(0 21.4541) rotate(-45.6544)"/>
</clipPath>
</defs>
</svg>
