<svg width="52" height="61" viewBox="0 0 52 61" fill="none" xmlns="http://www.w3.org/2000/svg">
<g id="Location">
<path id="Fill 1" fill-rule="evenodd" clip-rule="evenodd" d="M26.016 20.3769C23.0214 20.3769 20.5854 22.8129 20.5854 25.8106C20.5854 28.8051 23.0214 31.238 26.016 31.238C29.0105 31.238 31.4465 28.8051 31.4465 25.8106C31.4465 22.8129 29.0105 20.3769 26.016 20.3769ZM26.016 35.8928C20.4551 35.8928 15.9307 31.3715 15.9307 25.8106C15.9307 20.2466 20.4551 15.7222 26.016 15.7222C31.5769 15.7222 36.1013 20.2466 36.1013 25.8106C36.1013 31.3715 31.5769 35.8928 26.016 35.8928Z" fill="black"/>
<g id="Group 5">
<mask id="mask0_4_509" style="mask-type:luminance" maskUnits="userSpaceOnUse" x="0" y="0" width="52" height="61">
<path id="Clip 4" fill-rule="evenodd" clip-rule="evenodd" d="M0.413086 0.206299H51.6139V60.7182H0.413086V0.206299Z" fill="white"/>
</mask>
<g mask="url(#mask0_4_509)">
<path id="Fill 3" fill-rule="evenodd" clip-rule="evenodd" d="M26.0123 4.86106C14.4623 4.86106 5.06589 14.3475 5.06589 26.003C5.06589 40.8331 22.5181 55.2814 26.0123 56.051C29.5065 55.2783 46.9587 40.83 46.9587 26.003C46.9587 14.3475 37.5623 4.86106 26.0123 4.86106ZM26.0123 60.7182C20.4452 60.7182 0.411133 43.4894 0.411133 26.003C0.411133 11.778 11.896 0.206299 26.0123 0.206299C40.1287 0.206299 51.6135 11.778 51.6135 26.003C51.6135 43.4894 31.5794 60.7182 26.0123 60.7182Z" fill="black"/>
</g>
</g>
</g>
</svg>
