<svg width="373" height="298" viewBox="0 0 373 298" fill="none" xmlns="http://www.w3.org/2000/svg">
<path d="M289.27 215.395C253.859 277.718 175.48 301.979 111.314 273.242H111.238C56.7728 249.69 19.6551 188.497 29.1859 123.981C33.1439 97.1885 44.7133 71.3856 62.2958 50.6824C63.5137 49.2362 64.7315 47.8661 65.9494 46.5722C77.0621 34.4699 90.4583 24.4228 104.996 16.8113C125.319 6.15524 148.077 0.218287 170.988 0.0660578C214.77 -1.44368 266.179 22.9943 291.63 66.2859C314.89 105.316 317.48 164.782 289.27 215.395Z" fill="#8AD1F9"/>
<path d="M291.63 66.2859C290.564 75.8003 290.564 85.6952 287.139 94.5245C283.79 103.278 274.656 111.346 265.751 108.301C250.627 103.048 256.169 78.1186 243.144 70.0917C236.522 65.9053 227.541 68.2649 221.223 72.9079C212.927 78.9971 207.751 88.3592 200.596 95.7424C183.276 113.615 161.39 106.071 162.919 80.0627C163.528 71.0812 166.421 62.2519 166.192 53.2703C165.964 46.7244 163.528 39.6458 157.744 36.4489C147.088 30.6642 134.072 42.0053 122.122 39.4935C111.923 37.2862 106.671 27.4674 104.996 16.8113C125.319 6.15524 148.077 0.218287 170.988 0.0660578C214.77 -1.44368 266.179 22.9943 291.63 66.2859Z" fill="#D1E789"/>
<path d="M122.198 253.3C120.815 261.412 115.799 267.476 111.314 273.242H111.237C64.9391 253.221 34.7733 207.805 29.3379 164.322C34.2854 164.55 39.3089 164.702 44.1042 165.768C54.2274 167.975 60.0122 177.414 62.2956 186.928C64.3507 195.757 64.2746 204.967 66.4819 213.72C68.7654 222.473 74.2456 231.303 82.9227 233.738C93.5788 236.707 106.062 229.476 115.424 235.337C121.208 238.99 123.34 246.602 122.198 253.3Z" fill="#D1E789"/>
<path d="M283.029 225.214C266.055 249.951 241.622 268.066 213.916 277.581C212.039 265.19 221.926 258.842 224.649 248.657C230.451 227.073 199.892 207.208 211.785 186.395C215.971 179.164 223.507 182.665 229.596 179.164C233.478 176.957 233.326 173.379 235.914 169.954C238.882 165.996 243.829 162.571 248.625 161.506C256.921 159.679 266.359 164.398 269.176 172.39C272.068 180.382 268.338 189.059 268.034 197.508C267.653 208.468 273.666 219.505 283.029 225.214Z" fill="#D1E789"/>
<path d="M5.10759 276.022C-9.1119 253.284 9.97626 209.377 18.5317 194.377C50.0926 139.048 93.9478 92.6995 142.018 63.8665C171.965 45.9045 207.369 29.0054 241.71 16.2799C264.872 7.69841 314.257 -3.29884 335.501 16.4769C345.766 26.0321 347.974 41.1324 342.079 61.3616C339.314 70.8165 335.597 78.6955 330.394 86.1546C329.175 87.8865 326.804 88.2879 325.094 87.0986C323.37 85.8945 322.946 83.5233 324.15 81.7988C328.87 75.0384 332.245 67.8655 334.772 59.2283C339.797 41.9909 338.296 29.4811 330.312 22.048C313.246 6.15605 268.536 14.4551 244.356 23.4157C210.447 35.985 175.489 52.6686 145.927 70.3928C98.9652 98.5642 56.0688 143.936 25.1472 198.145C13.3063 218.898 1.26469 255.529 11.5595 271.986C15.8187 278.794 23.4971 281.756 35.2116 280.965C45.6699 280.277 54.7457 275.572 63.8959 270.391C65.6947 269.358 68.0361 269.99 69.0842 271.826C70.1174 273.658 69.4707 275.977 67.6421 277.014C58.0906 282.422 47.7586 287.77 35.7096 288.561C23.2978 289.354 11.7015 286.569 5.10759 276.022Z" fill="black"/>
<path d="M323.199 98.4415C321.415 98.4415 319.858 97.1992 319.483 95.4386L312.094 61.2241C311.648 59.1688 312.956 57.1433 315.008 56.7011C317.089 56.2476 319.089 57.5707 319.527 59.6185L325.905 89.1465C334.646 84.7015 342.525 78.6621 349.386 71.151C350.806 69.6086 353.214 69.4934 354.76 70.9094C356.314 72.3254 356.425 74.7337 355.005 76.2872C342.074 90.443 325.855 98.4415 323.199 98.4415Z" fill="black"/>
<path d="M51.1555 125.487C51.096 125.487 51.0291 125.483 50.9622 125.476C49.9141 125.368 49.156 124.435 49.26 123.391C51.7799 98.8615 63.7917 75.3915 82.2183 58.9978C82.9988 58.3066 84.203 58.3586 84.9017 59.1577C85.6004 59.9418 85.5335 61.146 84.7456 61.8447C67.0177 77.6103 55.4667 100.185 53.0509 123.777C52.9468 124.758 52.1218 125.487 51.1555 125.487Z" fill="black"/>
<path d="M313.848 240.328C309.296 238.185 312.524 231.297 317.089 233.438C336.066 242.354 354.344 253.035 371.403 265.188C373.112 266.407 373.514 268.782 372.295 270.495C367.672 276.99 362.612 263.236 313.848 240.328Z" fill="black"/>
<path d="M150.803 292.304C148.722 292.051 147.206 290.148 147.458 288.063C147.719 285.978 149.532 284.443 151.673 284.744C235.749 294.97 305.198 231.493 307.106 144.817C307.158 142.72 308.994 141.074 310.994 141.096C313.097 141.145 314.762 142.884 314.718 144.988C312.637 239.347 236.073 302.804 150.803 292.304Z" fill="black"/>
<path d="M319.2 297.507C317.111 297.329 315.558 295.485 315.736 293.393C317.193 276.293 311.053 258.621 299.294 246.115C297.852 244.583 297.927 242.175 299.458 240.737C300.989 239.295 303.39 239.365 304.839 240.904C318.055 254.956 324.961 274.821 323.318 294.039C323.132 296.203 321.2 297.707 319.2 297.507Z" fill="black"/>
<path d="M315.023 224.507C312.986 224.012 311.73 221.953 312.22 219.913C312.718 217.869 314.777 216.624 316.822 217.111C333.486 221.154 351.891 217.772 366.036 208.042C367.775 206.857 370.139 207.295 371.328 209.024C372.518 210.756 372.079 213.123 370.347 214.316C354.427 225.261 333.738 229.045 315.023 224.507Z" fill="black"/>
</svg>
