<svg width="25" height="25" viewBox="0 0 25 25" fill="none" xmlns="http://www.w3.org/2000/svg">
<path d="M12.57 2.00415C15.2729 2.00415 15.6102 2.01417 16.6707 2.06427C17.7301 2.11437 18.4514 2.28172 19.0861 2.53022C19.7427 2.78474 20.2958 3.12944 20.8489 3.68557C21.3548 4.18649 21.7462 4.79242 21.9959 5.46119C22.2416 6.09949 22.4088 6.82697 22.4585 7.89415C22.5053 8.96232 22.5182 9.30201 22.5182 12.0246C22.5182 14.7471 22.5083 15.0868 22.4585 16.155C22.4088 17.2221 22.2416 17.9486 21.9959 18.5879C21.7469 19.2571 21.3554 19.8631 20.8489 20.3635C20.3514 20.8729 19.7499 21.2671 19.0861 21.5189C18.4524 21.7664 17.7301 21.9347 16.6707 21.9848C15.6102 22.0319 15.2729 22.045 12.57 22.045C9.86709 22.045 9.52985 22.0349 8.46937 21.9848C7.40989 21.9347 6.68864 21.7664 6.05395 21.5189C5.38974 21.2679 4.78807 20.8735 4.29113 20.3635C3.78517 19.8627 3.39374 19.2568 3.14411 18.5879C2.89739 17.9496 2.73126 17.2221 2.68152 16.155C2.63476 15.0868 2.62183 14.7471 2.62183 12.0246C2.62183 9.30201 2.63177 8.96232 2.68152 7.89415C2.73126 6.82597 2.89739 6.10049 3.14411 5.46119C3.39305 4.79201 3.78457 4.18591 4.29113 3.68557C4.78821 3.17577 5.38984 2.78146 6.05395 2.53022C6.68864 2.28172 7.40889 2.11437 8.46937 2.06427C9.52985 2.01718 9.86709 2.00415 12.57 2.00415ZM12.57 7.01435C11.2508 7.01435 9.98562 7.54221 9.0528 8.48181C8.11997 9.4214 7.59592 10.6958 7.59592 12.0246C7.59592 13.3533 8.11997 14.6277 9.0528 15.5673C9.98562 16.5069 11.2508 17.0348 12.57 17.0348C13.8892 17.0348 15.1544 16.5069 16.0872 15.5673C17.0201 14.6277 17.5441 13.3533 17.5441 12.0246C17.5441 10.6958 17.0201 9.4214 16.0872 8.48181C15.1544 7.54221 13.8892 7.01435 12.57 7.01435ZM19.0363 6.76384C19.0363 6.43165 18.9053 6.11306 18.6721 5.87816C18.4389 5.64326 18.1226 5.51129 17.7928 5.51129C17.463 5.51129 17.1467 5.64326 16.9135 5.87816C16.6803 6.11306 16.5493 6.43165 16.5493 6.76384C16.5493 7.09604 16.6803 7.41463 16.9135 7.64953C17.1467 7.88443 17.463 8.01639 17.7928 8.01639C18.1226 8.01639 18.4389 7.88443 18.6721 7.64953C18.9053 7.41463 19.0363 7.09604 19.0363 6.76384ZM12.57 9.01844C13.3615 9.01844 14.1206 9.33515 14.6803 9.89891C15.24 10.4627 15.5545 11.2273 15.5545 12.0246C15.5545 12.8218 15.24 13.5865 14.6803 14.1502C14.1206 14.714 13.3615 15.0307 12.57 15.0307C11.7785 15.0307 11.0194 14.714 10.4597 14.1502C9.89999 13.5865 9.58556 12.8218 9.58556 12.0246C9.58556 11.2273 9.89999 10.4627 10.4597 9.89891C11.0194 9.33515 11.7785 9.01844 12.57 9.01844Z" fill="#191A19"/>
</svg>
