<svg width="25" height="25" viewBox="0 0 25 25" fill="none" xmlns="http://www.w3.org/2000/svg">
<path d="M22.2439 5.66751C21.4845 6.00589 20.6791 6.22812 19.8544 6.32685C20.7236 5.80322 21.3742 4.97912 21.6849 4.00813C20.8691 4.49713 19.9748 4.83982 19.0426 5.0252C18.4165 4.35041 17.5866 3.90288 16.6819 3.75219C15.7772 3.60151 14.8484 3.75611 14.0399 4.19196C13.2315 4.62781 12.5886 5.32049 12.2113 6.16231C11.834 7.00413 11.7434 7.94793 11.9535 8.84699C10.2993 8.76347 8.68092 8.33046 7.20356 7.57606C5.72621 6.82167 4.42289 5.76275 3.3782 4.46807C3.00842 5.10782 2.81409 5.83508 2.81513 6.57536C2.81513 8.02832 3.54931 9.31193 4.6655 10.0635C4.00495 10.0425 3.35893 9.86283 2.78131 9.5394V9.5915C2.78151 10.5592 3.11395 11.497 3.72226 12.246C4.33057 12.9949 5.17731 13.509 6.11893 13.7009C5.50573 13.8682 4.86278 13.8929 4.23872 13.773C4.5042 14.6059 5.02165 15.3344 5.7186 15.8564C6.41556 16.3783 7.25713 16.6677 8.12548 16.6839C7.26245 17.3667 6.27429 17.8713 5.2175 18.1691C4.16071 18.4669 3.05601 18.552 1.96655 18.4195C3.86835 19.6514 6.08221 20.3054 8.34334 20.3033C15.9965 20.3033 20.1817 13.9173 20.1817 8.37903C20.1817 8.19866 20.1767 8.01629 20.1688 7.83793C20.9834 7.24489 21.6864 6.51025 22.2449 5.66851L22.2439 5.66751Z" fill="#191A19"/>
</svg>
