<svg width="55" height="72" viewBox="0 0 55 72" fill="none" xmlns="http://www.w3.org/2000/svg">
<path id="Vector" d="M38.2431 54.9931L38.7921 66.1258L27.5313 58.3003L16.2074 66.1332L16.7568 54.9931H12.001L11.1813 71.6181H16.6278L27.5251 64.0804L38.3718 71.6181H43.8186L42.9989 54.9931H38.2431ZM51.1622 20.9881L50.8366 13.8551L44.8226 10.0066L40.9734 3.99205L33.8402 3.66548L27.5 0.381897L21.1598 3.66623L14.0266 3.99279L10.1773 10.0066L4.16337 13.8551L3.8377 20.9881L0.553223 27.3285L3.8377 33.669L4.16426 40.8019L10.1773 44.6504L14.026 50.6651L21.1592 50.9909L27.5 54.2752L33.8402 50.9909L40.9734 50.6651L44.822 44.6504L50.8364 40.8025L51.1622 33.6696L54.4467 27.3291L51.1622 20.9881ZM46.4648 32.4103L46.2031 38.1272L41.3826 41.2117L38.2981 46.0322L32.581 46.2935L27.5 48.9257L22.4184 46.2935L16.7013 46.0322L13.6168 41.2117L8.79685 38.1272L8.53575 32.4103L5.90232 27.3285L8.53515 22.2478L8.79685 16.53L13.6168 13.4454L16.7013 8.62508L22.4184 8.36383L27.5 5.73144L32.5816 8.36368L38.2987 8.62493L41.3832 13.4453L46.2031 16.53L46.4642 22.247L49.0976 27.3285L46.4648 32.4103Z" fill="black"/>
</svg>
