<svg width="75" height="76" viewBox="0 0 75 76" fill="none" xmlns="http://www.w3.org/2000/svg">
<g id="Iconly/Light-Outline/3 User">
<g id="3 User">
<path id="Fill 1" fill-rule="evenodd" clip-rule="evenodd" d="M55.5266 38.2288C54.3842 38.2288 53.3877 37.3875 53.2232 36.2234C53.0463 34.9475 53.931 33.7709 55.2069 33.594C58.4354 33.1408 60.8723 30.3406 60.8785 27.0749C60.8785 23.837 58.5565 21.099 55.3559 20.5744C54.0893 20.3664 53.2294 19.1681 53.4374 17.8984C53.6485 16.6287 54.8375 15.7781 56.1134 15.9799C61.5708 16.8771 65.5351 21.546 65.5351 27.0811C65.5226 32.6534 61.3597 37.4341 55.8495 38.207C55.7408 38.2226 55.6322 38.2288 55.5266 38.2288Z" fill="black"/>
<g id="Group 5">
<mask id="mask0_4_615" style="mask-type:luminance" maskUnits="userSpaceOnUse" x="58" y="43" width="13" height="16">
<path id="Clip 4" fill-rule="evenodd" clip-rule="evenodd" d="M58.9146 43.9877H70.6924V58.049H58.9146V43.9877Z" fill="white"/>
</mask>
<g mask="url(#mask0_4_615)">
<path id="Fill 3" fill-rule="evenodd" clip-rule="evenodd" d="M64.7609 58.049C63.8234 58.049 62.9386 57.4778 62.5847 56.5496C62.1253 55.3482 62.7306 54.001 63.932 53.5446C66.0368 52.7437 66.0368 51.859 66.0368 51.4337C66.0368 50.074 64.3076 49.124 60.8991 48.6149C59.6294 48.4224 58.7509 47.2397 58.9402 45.9638C59.1296 44.691 60.3092 43.8435 61.5913 44.0081C69.1132 45.1349 70.6933 48.6677 70.6933 51.4337C70.6933 53.1224 70.029 56.205 65.5897 57.8969C65.3166 57.9994 65.0372 58.049 64.7609 58.049Z" fill="black"/>
</g>
</g>
<path id="Fill 6" fill-rule="evenodd" clip-rule="evenodd" d="M36.9003 49.9243C29.5244 49.9243 20.7298 50.8308 20.7298 55.1458C20.7298 59.495 29.5244 60.4077 36.9003 60.4077C44.2762 60.4077 53.0678 59.5043 53.0678 55.1986C53.0678 50.8401 44.2762 49.9243 36.9003 49.9243ZM36.9003 65.0643C31.7502 65.0643 16.0732 65.0643 16.0732 55.1459C16.0732 45.2678 31.7502 45.2678 36.9003 45.2678C42.0504 45.2678 57.7243 45.2678 57.7243 55.1986C57.7243 65.0643 42.5968 65.0643 36.9003 65.0643Z" fill="black"/>
<path id="Fill 8" fill-rule="evenodd" clip-rule="evenodd" d="M36.9005 17.5958C31.648 17.5958 27.3764 21.8705 27.3764 27.1231C27.3671 29.6686 28.3418 32.0497 30.1268 33.8471C31.9118 35.6445 34.2898 36.641 36.8229 36.6503L36.9005 38.9786V36.6503C42.1531 36.6503 46.4278 32.3787 46.4278 27.1231C46.4278 21.8705 42.1531 17.5958 36.9005 17.5958ZM36.9005 41.3067H36.8167C33.0294 41.2943 29.4811 39.8104 26.8238 37.1283C24.1603 34.4492 22.7043 30.8917 22.7198 27.1137C22.7198 19.3031 29.0807 12.9392 36.9005 12.9392C44.7235 12.9392 51.0843 19.3031 51.0843 27.123C51.0843 34.9428 44.7235 41.3067 36.9005 41.3067Z" fill="black"/>
<path id="Fill 10" fill-rule="evenodd" clip-rule="evenodd" d="M18.2709 38.2289C18.1654 38.2289 18.0567 38.2227 17.9481 38.2071C12.4379 37.4342 8.27804 32.6535 8.26562 27.0874C8.26562 21.5461 12.2299 16.8772 17.6873 15.98C18.9943 15.7751 20.1522 16.635 20.3633 17.8985C20.5713 19.1682 19.7114 20.3665 18.4448 20.5744C15.2442 21.0991 12.9221 23.8371 12.9221 27.0812C12.9284 30.3407 15.3653 33.144 18.5907 33.5941C19.8666 33.771 20.7513 34.9476 20.5744 36.2235C20.4098 37.3876 19.4133 38.2289 18.2709 38.2289Z" fill="black"/>
<path id="Fill 12" fill-rule="evenodd" clip-rule="evenodd" d="M9.04 58.0491C8.76372 58.0491 8.48433 57.9994 8.21114 57.897C3.76882 56.202 3.10449 53.1194 3.10449 51.4337C3.10449 48.6709 4.68461 45.135 12.2095 44.0081C13.4916 43.8467 14.6651 44.6911 14.8576 45.9639C15.0469 47.2398 14.1684 48.4225 12.8987 48.615C9.49013 49.1241 7.76101 50.074 7.76101 51.4337C7.76101 51.859 7.76101 52.7407 9.86887 53.5447C11.0702 54.001 11.6756 55.3483 11.2162 56.5497C10.8623 57.4779 9.97752 58.0491 9.04 58.0491Z" fill="black"/>
</g>
</g>
</svg>
